<mxfile host="app.diagrams.net" modified="2022-03-02T08:41:59.870Z" agent="5.0 (Windows NT 10.0; Win64; x64) AppleWebKit/537.36 (KHTML, like Gecko) Chrome/98.0.4758.102 Safari/537.36" etag="YX0P3Iei1W6psKvVzocF" version="16.5.4" type="github">
  <diagram id="Vu5R6pC6Jvy1ZkNgAaAU" name="Page-1">
    <mxGraphModel dx="978" dy="585" grid="1" gridSize="10" guides="1" tooltips="1" connect="1" arrows="1" fold="1" page="0" pageScale="1" pageWidth="850" pageHeight="1100" math="0" shadow="0">
      <root>
        <mxCell id="0" />
        <mxCell id="1" parent="0" />
        <mxCell id="S3MR4VPSBNqxNv_QlI8S-1" value="registeration" style="ellipse;whiteSpace=wrap;html=1;" vertex="1" parent="1">
          <mxGeometry x="340" y="70" width="120" height="80" as="geometry" />
        </mxCell>
        <mxCell id="S3MR4VPSBNqxNv_QlI8S-2" value="payment" style="ellipse;whiteSpace=wrap;html=1;" vertex="1" parent="1">
          <mxGeometry x="340" y="200" width="120" height="80" as="geometry" />
        </mxCell>
        <mxCell id="S3MR4VPSBNqxNv_QlI8S-3" value="enrolment" style="ellipse;whiteSpace=wrap;html=1;" vertex="1" parent="1">
          <mxGeometry x="340" y="320" width="120" height="80" as="geometry" />
        </mxCell>
        <mxCell id="S3MR4VPSBNqxNv_QlI8S-7" style="edgeStyle=orthogonalEdgeStyle;rounded=0;orthogonalLoop=1;jettySize=auto;html=1;exitX=0.75;exitY=0.1;exitDx=0;exitDy=0;exitPerimeter=0;entryX=0;entryY=0.5;entryDx=0;entryDy=0;" edge="1" parent="1" source="S3MR4VPSBNqxNv_QlI8S-4" target="S3MR4VPSBNqxNv_QlI8S-1">
          <mxGeometry relative="1" as="geometry" />
        </mxCell>
        <mxCell id="S3MR4VPSBNqxNv_QlI8S-15" value="applies for" style="edgeLabel;html=1;align=center;verticalAlign=middle;resizable=0;points=[];" vertex="1" connectable="0" parent="S3MR4VPSBNqxNv_QlI8S-7">
          <mxGeometry x="-0.0366" y="-1" relative="1" as="geometry">
            <mxPoint as="offset" />
          </mxGeometry>
        </mxCell>
        <mxCell id="S3MR4VPSBNqxNv_QlI8S-8" style="edgeStyle=orthogonalEdgeStyle;rounded=0;orthogonalLoop=1;jettySize=auto;html=1;exitX=0.5;exitY=0.5;exitDx=0;exitDy=0;exitPerimeter=0;entryX=0;entryY=0.5;entryDx=0;entryDy=0;" edge="1" parent="1" source="S3MR4VPSBNqxNv_QlI8S-4" target="S3MR4VPSBNqxNv_QlI8S-2">
          <mxGeometry relative="1" as="geometry" />
        </mxCell>
        <mxCell id="S3MR4VPSBNqxNv_QlI8S-16" value="pays" style="edgeLabel;html=1;align=center;verticalAlign=middle;resizable=0;points=[];" vertex="1" connectable="0" parent="S3MR4VPSBNqxNv_QlI8S-8">
          <mxGeometry x="0.1437" y="-1" relative="1" as="geometry">
            <mxPoint as="offset" />
          </mxGeometry>
        </mxCell>
        <mxCell id="S3MR4VPSBNqxNv_QlI8S-9" style="edgeStyle=orthogonalEdgeStyle;rounded=0;orthogonalLoop=1;jettySize=auto;html=1;exitX=1;exitY=1;exitDx=0;exitDy=0;exitPerimeter=0;entryX=0;entryY=0.5;entryDx=0;entryDy=0;" edge="1" parent="1" source="S3MR4VPSBNqxNv_QlI8S-4" target="S3MR4VPSBNqxNv_QlI8S-3">
          <mxGeometry relative="1" as="geometry" />
        </mxCell>
        <mxCell id="S3MR4VPSBNqxNv_QlI8S-22" style="edgeStyle=orthogonalEdgeStyle;rounded=0;orthogonalLoop=1;jettySize=auto;html=1;exitX=0;exitY=1;exitDx=0;exitDy=0;exitPerimeter=0;entryX=0;entryY=0.5;entryDx=0;entryDy=0;" edge="1" parent="1" source="S3MR4VPSBNqxNv_QlI8S-4" target="S3MR4VPSBNqxNv_QlI8S-21">
          <mxGeometry relative="1" as="geometry" />
        </mxCell>
        <mxCell id="S3MR4VPSBNqxNv_QlI8S-23" value="attends" style="edgeLabel;html=1;align=center;verticalAlign=middle;resizable=0;points=[];" vertex="1" connectable="0" parent="S3MR4VPSBNqxNv_QlI8S-22">
          <mxGeometry x="-0.3185" y="-1" relative="1" as="geometry">
            <mxPoint as="offset" />
          </mxGeometry>
        </mxCell>
        <mxCell id="S3MR4VPSBNqxNv_QlI8S-4" value="student" style="shape=umlActor;verticalLabelPosition=bottom;verticalAlign=top;html=1;outlineConnect=0;" vertex="1" parent="1">
          <mxGeometry x="100" y="210" width="30" height="60" as="geometry" />
        </mxCell>
        <mxCell id="S3MR4VPSBNqxNv_QlI8S-10" style="edgeStyle=orthogonalEdgeStyle;rounded=0;orthogonalLoop=1;jettySize=auto;html=1;exitX=0.5;exitY=0;exitDx=0;exitDy=0;exitPerimeter=0;entryX=1;entryY=0.5;entryDx=0;entryDy=0;" edge="1" parent="1" source="S3MR4VPSBNqxNv_QlI8S-5" target="S3MR4VPSBNqxNv_QlI8S-1">
          <mxGeometry relative="1" as="geometry" />
        </mxCell>
        <mxCell id="S3MR4VPSBNqxNv_QlI8S-17" value="takes" style="edgeLabel;html=1;align=center;verticalAlign=middle;resizable=0;points=[];" vertex="1" connectable="0" parent="S3MR4VPSBNqxNv_QlI8S-10">
          <mxGeometry x="-0.001" y="1" relative="1" as="geometry">
            <mxPoint as="offset" />
          </mxGeometry>
        </mxCell>
        <mxCell id="S3MR4VPSBNqxNv_QlI8S-11" style="edgeStyle=orthogonalEdgeStyle;rounded=0;orthogonalLoop=1;jettySize=auto;html=1;exitX=0;exitY=0.3333333333333333;exitDx=0;exitDy=0;exitPerimeter=0;entryX=0.978;entryY=0.383;entryDx=0;entryDy=0;entryPerimeter=0;" edge="1" parent="1" source="S3MR4VPSBNqxNv_QlI8S-5" target="S3MR4VPSBNqxNv_QlI8S-2">
          <mxGeometry relative="1" as="geometry" />
        </mxCell>
        <mxCell id="S3MR4VPSBNqxNv_QlI8S-18" value="handles" style="edgeLabel;html=1;align=center;verticalAlign=middle;resizable=0;points=[];" vertex="1" connectable="0" parent="S3MR4VPSBNqxNv_QlI8S-11">
          <mxGeometry x="-0.209" y="1" relative="1" as="geometry">
            <mxPoint as="offset" />
          </mxGeometry>
        </mxCell>
        <mxCell id="S3MR4VPSBNqxNv_QlI8S-12" style="edgeStyle=orthogonalEdgeStyle;rounded=0;orthogonalLoop=1;jettySize=auto;html=1;exitX=0;exitY=1;exitDx=0;exitDy=0;exitPerimeter=0;entryX=1;entryY=0.5;entryDx=0;entryDy=0;" edge="1" parent="1" source="S3MR4VPSBNqxNv_QlI8S-5" target="S3MR4VPSBNqxNv_QlI8S-3">
          <mxGeometry relative="1" as="geometry" />
        </mxCell>
        <mxCell id="S3MR4VPSBNqxNv_QlI8S-19" value="manages" style="edgeLabel;html=1;align=center;verticalAlign=middle;resizable=0;points=[];" vertex="1" connectable="0" parent="S3MR4VPSBNqxNv_QlI8S-12">
          <mxGeometry x="0.1156" y="-3" relative="1" as="geometry">
            <mxPoint as="offset" />
          </mxGeometry>
        </mxCell>
        <mxCell id="S3MR4VPSBNqxNv_QlI8S-5" value="manager" style="shape=umlActor;verticalLabelPosition=bottom;verticalAlign=top;html=1;outlineConnect=0;" vertex="1" parent="1">
          <mxGeometry x="670" y="210" width="30" height="60" as="geometry" />
        </mxCell>
        <mxCell id="S3MR4VPSBNqxNv_QlI8S-25" style="edgeStyle=orthogonalEdgeStyle;rounded=0;orthogonalLoop=1;jettySize=auto;html=1;exitX=0.5;exitY=0.5;exitDx=0;exitDy=0;exitPerimeter=0;entryX=0.972;entryY=0.383;entryDx=0;entryDy=0;entryPerimeter=0;" edge="1" parent="1" source="S3MR4VPSBNqxNv_QlI8S-20" target="S3MR4VPSBNqxNv_QlI8S-21">
          <mxGeometry relative="1" as="geometry" />
        </mxCell>
        <mxCell id="S3MR4VPSBNqxNv_QlI8S-26" value="takes" style="edgeLabel;html=1;align=center;verticalAlign=middle;resizable=0;points=[];" vertex="1" connectable="0" parent="S3MR4VPSBNqxNv_QlI8S-25">
          <mxGeometry x="0.1612" y="1" relative="1" as="geometry">
            <mxPoint as="offset" />
          </mxGeometry>
        </mxCell>
        <mxCell id="S3MR4VPSBNqxNv_QlI8S-20" value="teacher" style="shape=umlActor;verticalLabelPosition=bottom;verticalAlign=top;html=1;outlineConnect=0;" vertex="1" parent="1">
          <mxGeometry x="670" y="440" width="30" height="60" as="geometry" />
        </mxCell>
        <mxCell id="S3MR4VPSBNqxNv_QlI8S-21" value="class" style="ellipse;whiteSpace=wrap;html=1;" vertex="1" parent="1">
          <mxGeometry x="340" y="440" width="120" height="80" as="geometry" />
        </mxCell>
      </root>
    </mxGraphModel>
  </diagram>
</mxfile>
